<!DOCTYPE svg PUBLIC "-//W3C//DTD SVG 1.1//EN" "https://www.w3.org/Graphics/SVG/1.1/DTD/svg11.dtd"><svg xmlns="http://www.w3.org/2000/svg" aria-label="Graph view" width="1160" height="800"><g transform="translate(12,19.06987953186035)"><g class="nodes"><g class="node-container" transform="translate(567.9891967773438,18.88888931274414)"><g class="node anchor"><circle class="shape" x="-15.958769798278809" y="-8.88888931274414" r="25.95876979827881"/><text class="label"><tspan xml:space="preserve" text-anchor="middle" alignment-baseline="central">Start</tspan></text></g></g><g class="node-container" transform="translate(567.9891967773438,746.6666679382324)"><g class="node anchor"><circle class="shape" x="-12.17881965637207" y="-8.88888931274414" r="22.17881965637207"/><text class="label"><tspan xml:space="preserve" text-anchor="middle" alignment-baseline="central">End</tspan></text></g></g><g class="node-container" transform="translate(567.9891967773438,257.2222213745117)"><g class="node state Parallel Container SucceededState" aria-label="State ParallelCrawlers" data-virtual-tab-id="1" tabindex="0" transform="translate(-567.9891967773438,-154.44444274902344)"><rect class="shape" rx="5" ry="5" x="0" y="0" width="1135.9783935546875" height="368.8888854980469" transform="translate(0,-20)"/><g class="branches" transform="translate(20,40)"><g class="branch" transform="translate(0,0)"><g class="nodes"><g class="node-container" transform="translate(322.2762985229492,18.88888931274414)"><g class="node state Task SucceededState" aria-label="State StartGlueCrawler2" data-virtual-tab-id="2" tabindex="-1" transform="translate(-8)"><rect class="shape step-status" rx="5" ry="5" x="-69.00939559936523" y="-18.88888931274414" width="154.01879119873047" height="37.77777862548828"/><text class="label" xml:space="preserve" text-anchor="middle" alignment-baseline="central">StartGlueCrawler2</text><svg class="icon" width="16" height="16" x="64.00939559936523" y="-8"><circle stroke="black" stroke-width="1" fill="none" cx="8" cy="8" r="7"/><path stroke="black" stroke-width="1" fill="none" d="m5 8 2 2 3.521-3.521"/></svg></g></g><g class="node-container" transform="translate(205.7620964050293,81.66666793823242)"><g class="node state Task SucceededState" aria-label="State SendCrawler2StartAlert" data-virtual-tab-id="3" tabindex="-1" transform="translate(-8)"><rect class="shape step-status" rx="5" ry="5" x="-85.8297119140625" y="-18.88888931274414" width="187.659423828125" height="37.77777862548828"/><text class="label" xml:space="preserve" text-anchor="middle" alignment-baseline="central">SendCrawler2StartAlert</text><svg class="icon" width="16" height="16" x="80.8297119140625" y="-8"><circle stroke="black" stroke-width="1" fill="none" cx="8" cy="8" r="7"/><path stroke="black" stroke-width="1" fill="none" d="m5 8 2 2 3.521-3.521"/></svg></g></g><g class="node-container" transform="translate(438.79050064086914,81.66666793823242)"><g class="node state Task NotYetStarted" aria-label="State SendCrawler2FailureAlert" data-virtual-tab-id="4" tabindex="-1" transform="translate(-8)"><rect class="shape step-status" rx="5" ry="5" x="-91.19869232177734" y="-18.88888931274414" width="198.3973846435547" height="37.77777862548828"/><text class="label" xml:space="preserve" text-anchor="middle" alignment-baseline="central">SendCrawler2FailureAlert</text><svg class="icon" width="16" height="16" x="86.19869232177734" y="-8"/></g></g><g class="node-container" transform="translate(205.7620964050293,144.4444465637207)"><g class="node state Task SucceededState" aria-label="State WaitForCrawler2Completion" data-virtual-tab-id="5" tabindex="-1" transform="translate(-8)"><rect class="shape step-status" rx="5" ry="5" x="-100.57292175292969" y="-18.88888931274414" width="217.14584350585938" height="37.77777862548828"/><text class="label" xml:space="preserve" text-anchor="middle" alignment-baseline="central">WaitForCrawler2Completion</text><svg class="icon" width="16" height="16" x="95.57292175292969" y="-8"><circle stroke="black" stroke-width="1" fill="none" cx="8" cy="8" r="7"/><path stroke="black" stroke-width="1" fill="none" d="m5 8 2 2 3.521-3.521"/></svg></g></g><g class="node-container" transform="translate(311.02002716064453,207.22222518920898)"><g class="node state Choice SucceededState" aria-label="State CheckCrawler2Status" data-virtual-tab-id="6" tabindex="-1" transform="translate(-8)"><rect class="shape step-status" rx="5" ry="5" x="-77.61427307128906" y="-18.88888931274414" width="171.22854614257812" height="37.77777862548828"/><text class="label" xml:space="preserve" text-anchor="middle" alignment-baseline="central">CheckCrawler2Status</text><svg class="icon" width="16" height="16" x="72.61427307128906" y="-8"><circle stroke="black" stroke-width="1" fill="none" cx="8" cy="8" r="7"/><path stroke="black" stroke-width="1" fill="none" d="m5 8 2 2 3.521-3.521"/></svg></g></g><g class="node-container" transform="translate(85.50416564941406,270.00000381469727)"><g class="node state Wait SucceededState" aria-label="State Crawler2WaitInterval" data-virtual-tab-id="7" tabindex="-1" transform="translate(-8)"><rect class="shape step-status" rx="5" ry="5" x="-77.50416564941406" y="-18.88888931274414" width="171.00833129882812" height="37.77777862548828"/><text class="label" xml:space="preserve" text-anchor="middle" alignment-baseline="central">Crawler2WaitInterval</text><svg class="icon" width="16" height="16" x="72.50416564941406" y="-8"><circle stroke="black" stroke-width="1" fill="none" cx="8" cy="8" r="7"/><path stroke="black" stroke-width="1" fill="none" d="m5 8 2 2 3.521-3.521"/></svg></g></g><g class="node-container" transform="translate(326.02002716064453,270.00000381469727)"><g class="node state Task SucceededState" aria-label="State SendCrawler2CompletionAlert" data-virtual-tab-id="8" tabindex="-1" transform="translate(-8)"><rect class="shape step-status" rx="5" ry="5" x="-107.0116958618164" y="-18.88888931274414" width="230.0233917236328" height="37.77777862548828"/><text class="label" xml:space="preserve" text-anchor="middle" alignment-baseline="central">SendCrawler2CompletionAlert</text><svg class="icon" width="16" height="16" x="102.0116958618164" y="-8"><circle stroke="black" stroke-width="1" fill="none" cx="8" cy="8" r="7"/><path stroke="black" stroke-width="1" fill="none" d="m5 8 2 2 3.521-3.521"/></svg></g></g></g><g class="edges"><g class="edge"><path class="path" marker-end="url(#arrowhead1)" d="M252.162,37.778L244.428,39.861C236.695,41.944,221.229,46.111,213.495,50.278C205.762,54.444,205.762,58.611,205.762,60.694L205.762,62.778" style="fill: none;"/><defs><marker id="arrowhead1" viewBox="0 0 10 10" refX="9" refY="5" markerUnits="strokeWidth" markerWidth="8" markerHeight="6" orient="auto"><path d="M 0 0 L 10 5 L 0 10 z"/></marker></defs></g><g class="edge"><path class="path" marker-end="url(#arrowhead2)" d="M392.391,37.778L400.124,39.861C407.858,41.944,423.324,46.111,431.057,50.278C438.791,54.444,438.791,58.611,438.791,60.694L438.791,62.778" style="fill: none;"/><defs><marker id="arrowhead2" viewBox="0 0 10 10" refX="9" refY="5" markerUnits="strokeWidth" markerWidth="8" markerHeight="6" orient="auto"><path d="M 0 0 L 10 5 L 0 10 z"/></marker></defs></g><g class="edge"><path class="path" marker-end="url(#arrowhead3)" d="M205.762,100.556L205.762,102.639C205.762,104.722,205.762,108.889,205.762,113.056C205.762,117.222,205.762,121.389,205.762,123.472L205.762,125.556" style="fill: none;"/><defs><marker id="arrowhead3" viewBox="0 0 10 10" refX="9" refY="5" markerUnits="strokeWidth" markerWidth="8" markerHeight="6" orient="auto"><path d="M 0 0 L 10 5 L 0 10 z"/></marker></defs></g><g class="edge"><path class="path" marker-end="url(#arrowhead4)" d="M269.103,163.333L276.089,165.417C283.075,167.5,297.048,171.667,304.034,175.833C311.02,180,311.02,184.167,311.02,186.25L311.02,188.333" style="fill: none;"/><defs><marker id="arrowhead4" viewBox="0 0 10 10" refX="9" refY="5" markerUnits="strokeWidth" markerWidth="8" markerHeight="6" orient="auto"><path d="M 0 0 L 10 5 L 0 10 z"/></marker></defs></g><g class="edge"><path class="path" marker-end="url(#arrowhead5)" d="M238.652,226.111L230.671,228.194C222.689,230.278,206.726,234.444,191.758,238.611C176.79,242.778,162.818,246.944,155.831,249.028L148.845,251.111" style="fill: none;"/><defs><marker id="arrowhead5" viewBox="0 0 10 10" refX="9" refY="5" markerUnits="strokeWidth" markerWidth="8" markerHeight="6" orient="auto"><path d="M 0 0 L 10 5 L 0 10 z"/></marker></defs></g><g class="edge"><path class="path" marker-end="url(#arrowhead6)" d="M320.047,226.111L321.042,228.194C322.038,230.278,324.029,234.444,325.024,238.611C326.02,242.778,326.02,246.944,326.02,249.028L326.02,251.111" style="fill: none;"/><defs><marker id="arrowhead6" viewBox="0 0 10 10" refX="9" refY="5" markerUnits="strokeWidth" markerWidth="8" markerHeight="6" orient="auto"><path d="M 0 0 L 10 5 L 0 10 z"/></marker></defs></g><g class="edge"><path class="path" marker-end="url(#arrowhead7)" d="M76.478,251.111L75.482,249.028C74.486,246.944,72.495,242.778,71.5,235.463C70.504,228.148,70.504,217.685,70.504,207.222C70.504,196.759,70.504,186.296,79.481,178.981C88.459,171.667,106.413,167.5,115.391,165.417L124.368,163.333" style="fill: none;"/><defs><marker id="arrowhead7" viewBox="0 0 10 10" refX="9" refY="5" markerUnits="strokeWidth" markerWidth="8" markerHeight="6" orient="auto"><path d="M 0 0 L 10 5 L 0 10 z"/></marker></defs></g></g></g><g class="branch" transform="translate(557.9891967773438,0)"><g class="nodes"><g class="node-container" transform="translate(322.2762985229492,18.88888931274414)"><g class="node state Task SucceededState" aria-label="State StartGlueCrawler3" data-virtual-tab-id="9" tabindex="-1" transform="translate(-8)"><rect class="shape step-status" rx="5" ry="5" x="-68.67187881469727" y="-18.88888931274414" width="153.34375762939453" height="37.77777862548828"/><text class="label" xml:space="preserve" text-anchor="middle" alignment-baseline="central">StartGlueCrawler3</text><svg class="icon" width="16" height="16" x="63.671878814697266" y="-8"><circle stroke="black" stroke-width="1" fill="none" cx="8" cy="8" r="7"/><path stroke="black" stroke-width="1" fill="none" d="m5 8 2 2 3.521-3.521"/></svg></g></g><g class="node-container" transform="translate(205.7620964050293,81.66666793823242)"><g class="node state Task SucceededState" aria-label="State SendCrawler3StartAlert" data-virtual-tab-id="10" tabindex="-1" transform="translate(-8)"><rect class="shape step-status" rx="5" ry="5" x="-85.8297119140625" y="-18.88888931274414" width="187.659423828125" height="37.77777862548828"/><text class="label" xml:space="preserve" text-anchor="middle" alignment-baseline="central">SendCrawler3StartAlert</text><svg class="icon" width="16" height="16" x="80.8297119140625" y="-8"><circle stroke="black" stroke-width="1" fill="none" cx="8" cy="8" r="7"/><path stroke="black" stroke-width="1" fill="none" d="m5 8 2 2 3.521-3.521"/></svg></g></g><g class="node-container" transform="translate(438.79050064086914,81.66666793823242)"><g class="node state Task NotYetStarted" aria-label="State SendCrawler3FailureAlert" data-virtual-tab-id="11" tabindex="-1" transform="translate(-8)"><rect class="shape step-status" rx="5" ry="5" x="-91.19869232177734" y="-18.88888931274414" width="198.3973846435547" height="37.77777862548828"/><text class="label" xml:space="preserve" text-anchor="middle" alignment-baseline="central">SendCrawler3FailureAlert</text><svg class="icon" width="16" height="16" x="86.19869232177734" y="-8"/></g></g><g class="node-container" transform="translate(205.7620964050293,144.4444465637207)"><g class="node state Task SucceededState" aria-label="State WaitForCrawler3Completion" data-virtual-tab-id="12" tabindex="-1" transform="translate(-8)"><rect class="shape step-status" rx="5" ry="5" x="-100.57292175292969" y="-18.88888931274414" width="217.14584350585938" height="37.77777862548828"/><text class="label" xml:space="preserve" text-anchor="middle" alignment-baseline="central">WaitForCrawler3Completion</text><svg class="icon" width="16" height="16" x="95.57292175292969" y="-8"><circle stroke="black" stroke-width="1" fill="none" cx="8" cy="8" r="7"/><path stroke="black" stroke-width="1" fill="none" d="m5 8 2 2 3.521-3.521"/></svg></g></g><g class="node-container" transform="translate(311.02002716064453,207.22222518920898)"><g class="node state Choice SucceededState" aria-label="State CheckCrawler3Status" data-virtual-tab-id="13" tabindex="-1" transform="translate(-8)"><rect class="shape step-status" rx="5" ry="5" x="-77.61427307128906" y="-18.88888931274414" width="171.22854614257812" height="37.77777862548828"/><text class="label" xml:space="preserve" text-anchor="middle" alignment-baseline="central">CheckCrawler3Status</text><svg class="icon" width="16" height="16" x="72.61427307128906" y="-8"><circle stroke="black" stroke-width="1" fill="none" cx="8" cy="8" r="7"/><path stroke="black" stroke-width="1" fill="none" d="m5 8 2 2 3.521-3.521"/></svg></g></g><g class="node-container" transform="translate(85.50416564941406,270.00000381469727)"><g class="node state Wait SucceededState" aria-label="State Crawler3WaitInterval" data-virtual-tab-id="14" tabindex="-1" transform="translate(-8)"><rect class="shape step-status" rx="5" ry="5" x="-77.50416564941406" y="-18.88888931274414" width="171.00833129882812" height="37.77777862548828"/><text class="label" xml:space="preserve" text-anchor="middle" alignment-baseline="central">Crawler3WaitInterval</text><svg class="icon" width="16" height="16" x="72.50416564941406" y="-8"><circle stroke="black" stroke-width="1" fill="none" cx="8" cy="8" r="7"/><path stroke="black" stroke-width="1" fill="none" d="m5 8 2 2 3.521-3.521"/></svg></g></g><g class="node-container" transform="translate(326.02002716064453,270.00000381469727)"><g class="node state Task SucceededState" aria-label="State SendCrawler3CompletionAlert" data-virtual-tab-id="15" tabindex="-1" transform="translate(-8)"><rect class="shape step-status" rx="5" ry="5" x="-107.0116958618164" y="-18.88888931274414" width="230.0233917236328" height="37.77777862548828"/><text class="label" xml:space="preserve" text-anchor="middle" alignment-baseline="central">SendCrawler3CompletionAlert</text><svg class="icon" width="16" height="16" x="102.0116958618164" y="-8"><circle stroke="black" stroke-width="1" fill="none" cx="8" cy="8" r="7"/><path stroke="black" stroke-width="1" fill="none" d="m5 8 2 2 3.521-3.521"/></svg></g></g></g><g class="edges"><g class="edge"><path class="path" marker-end="url(#arrowhead8)" d="M252.162,37.778L244.428,39.861C236.695,41.944,221.229,46.111,213.495,50.278C205.762,54.444,205.762,58.611,205.762,60.694L205.762,62.778" style="fill: none;"/><defs><marker id="arrowhead8" viewBox="0 0 10 10" refX="9" refY="5" markerUnits="strokeWidth" markerWidth="8" markerHeight="6" orient="auto"><path d="M 0 0 L 10 5 L 0 10 z"/></marker></defs></g><g class="edge"><path class="path" marker-end="url(#arrowhead9)" d="M392.391,37.778L400.124,39.861C407.858,41.944,423.324,46.111,431.057,50.278C438.791,54.444,438.791,58.611,438.791,60.694L438.791,62.778" style="fill: none;"/><defs><marker id="arrowhead9" viewBox="0 0 10 10" refX="9" refY="5" markerUnits="strokeWidth" markerWidth="8" markerHeight="6" orient="auto"><path d="M 0 0 L 10 5 L 0 10 z"/></marker></defs></g><g class="edge"><path class="path" marker-end="url(#arrowhead10)" d="M205.762,100.556L205.762,102.639C205.762,104.722,205.762,108.889,205.762,113.056C205.762,117.222,205.762,121.389,205.762,123.472L205.762,125.556" style="fill: none;"/><defs><marker id="arrowhead10" viewBox="0 0 10 10" refX="9" refY="5" markerUnits="strokeWidth" markerWidth="8" markerHeight="6" orient="auto"><path d="M 0 0 L 10 5 L 0 10 z"/></marker></defs></g><g class="edge"><path class="path" marker-end="url(#arrowhead11)" d="M269.103,163.333L276.089,165.417C283.075,167.5,297.048,171.667,304.034,175.833C311.02,180,311.02,184.167,311.02,186.25L311.02,188.333" style="fill: none;"/><defs><marker id="arrowhead11" viewBox="0 0 10 10" refX="9" refY="5" markerUnits="strokeWidth" markerWidth="8" markerHeight="6" orient="auto"><path d="M 0 0 L 10 5 L 0 10 z"/></marker></defs></g><g class="edge"><path class="path" marker-end="url(#arrowhead12)" d="M238.652,226.111L230.671,228.194C222.689,230.278,206.726,234.444,191.758,238.611C176.79,242.778,162.818,246.944,155.831,249.028L148.845,251.111" style="fill: none;"/><defs><marker id="arrowhead12" viewBox="0 0 10 10" refX="9" refY="5" markerUnits="strokeWidth" markerWidth="8" markerHeight="6" orient="auto"><path d="M 0 0 L 10 5 L 0 10 z"/></marker></defs></g><g class="edge"><path class="path" marker-end="url(#arrowhead13)" d="M320.047,226.111L321.042,228.194C322.038,230.278,324.029,234.444,325.024,238.611C326.02,242.778,326.02,246.944,326.02,249.028L326.02,251.111" style="fill: none;"/><defs><marker id="arrowhead13" viewBox="0 0 10 10" refX="9" refY="5" markerUnits="strokeWidth" markerWidth="8" markerHeight="6" orient="auto"><path d="M 0 0 L 10 5 L 0 10 z"/></marker></defs></g><g class="edge"><path class="path" marker-end="url(#arrowhead14)" d="M76.478,251.111L75.482,249.028C74.486,246.944,72.495,242.778,71.5,235.463C70.504,228.148,70.504,217.685,70.504,207.222C70.504,196.759,70.504,186.296,79.481,178.981C88.459,171.667,106.413,167.5,115.391,165.417L124.368,163.333" style="fill: none;"/><defs><marker id="arrowhead14" viewBox="0 0 10 10" refX="9" refY="5" markerUnits="strokeWidth" markerWidth="8" markerHeight="6" orient="auto"><path d="M 0 0 L 10 5 L 0 10 z"/></marker></defs></g></g></g></g><g class="title node state SucceededState" transform="translate(547.9891967773438,-40)"><rect class="shape step-status" rx="5" ry="5" x="0" y="0" width="149.70450592041016" height="40" transform="translate(-54.85225296020508)"/><text class="label" xml:space="preserve" text-anchor="middle" alignment-baseline="central" font-weight="600" x="40" y="10" transform="translate(-28)">ParallelCrawlers</text><text class="desciption" xml:space="preserve" text-anchor="middle" alignment-baseline="central" x="40" y="30" transform="translate(-20)">2 Branches</text><svg class="icon" width="16" height="16" xml:space="preserve" text-anchor="middle" alignment-baseline="central" x="73.85225296020508" y="3"><circle stroke="black" stroke-width="1" fill="none" cx="8" cy="8" r="7"/><path stroke="black" stroke-width="1" fill="none" d="m5 8 2 2 3.521-3.521"/></svg></g><path class="path" marker-end="url(#arrowhead15)" d="M567.989,0L567.989,3.333C567.989,6.667,567.989,13.333,530.37,16.667C492.752,20,417.514,20,379.895,23.333C342.276,26.667,342.276,33.333,342.276,36.667L342.276,40" style="fill: none;"/><defs><marker id="arrowhead15" viewBox="0 0 10 10" refX="9" refY="5" markerUnits="strokeWidth" markerWidth="8" markerHeight="6" orient="auto"><path d="M 0 0 L 10 5 L 0 10 z"/></marker></defs><path class="path" marker-end="url(#arrowhead16)" d="M567.989,0L567.989,3.333C567.989,6.667,567.989,13.333,623.369,16.667C678.748,20,789.507,20,844.886,23.333C900.265,26.667,900.265,33.333,900.265,36.667L900.265,40" style="fill: none;"/><defs><marker id="arrowhead16" viewBox="0 0 10 10" refX="9" refY="5" markerUnits="strokeWidth" markerWidth="8" markerHeight="6" orient="auto"><path d="M 0 0 L 10 5 L 0 10 z"/></marker></defs></g></g><g class="node-container" transform="translate(438.63002014160156,495.5555534362793)"><g class="node state Task SucceededState" aria-label="State SendGlueJobStartingAlert" data-virtual-tab-id="16" tabindex="-1" transform="translate(-8)"><rect class="shape step-status" rx="5" ry="5" x="-93.38270568847656" y="-18.88888931274414" width="202.76541137695312" height="37.77777862548828"/><text class="label" xml:space="preserve" text-anchor="middle" alignment-baseline="central">SendGlueJobStartingAlert</text><svg class="icon" width="16" height="16" x="88.38270568847656" y="-8"><circle stroke="black" stroke-width="1" fill="none" cx="8" cy="8" r="7"/><path stroke="black" stroke-width="1" fill="none" d="m5 8 2 2 3.521-3.521"/></svg></g></g><g class="node-container" transform="translate(822.0455703735352,621.1111106872559)"><g class="node state Task NotYetStarted" aria-label="State SendParallelCrawlersFailureAlert" data-virtual-tab-id="17" tabindex="-1" transform="translate(-8)"><rect class="shape step-status" rx="5" ry="5" x="-113.92765808105469" y="-18.88888931274414" width="243.85531616210938" height="37.77777862548828"/><text class="label" xml:space="preserve" text-anchor="middle" alignment-baseline="central">SendParallelCrawlersFailureAlert</text><svg class="icon" width="16" height="16" x="108.92765808105469" y="-8"/></g></g><g class="node-container" transform="translate(692.686393737793,683.8888893127441)"><g class="node state Task NotYetStarted" aria-label="State WorkflowFailed" data-virtual-tab-id="18" tabindex="-1" transform="translate(-8)"><rect class="shape step-status" rx="5" ry="5" x="-60.017364501953125" y="-18.88888931274414" width="136.03472900390625" height="37.77777862548828"/><text class="label" xml:space="preserve" text-anchor="middle" alignment-baseline="central">WorkflowFailed</text><svg class="icon" width="16" height="16" x="55.017364501953125" y="-8"/></g></g><g class="node-container" transform="translate(438.63002014160156,558.3333320617676)"><g class="node state Task SucceededState" aria-label="State StartGlueJob" data-virtual-tab-id="19" tabindex="-1" transform="translate(-8)"><rect class="shape step-status" rx="5" ry="5" x="-51.992408752441406" y="-18.88888931274414" width="119.98481750488281" height="37.77777862548828"/><text class="label" xml:space="preserve" text-anchor="middle" alignment-baseline="central">StartGlueJob</text><svg class="icon" width="16" height="16" x="46.992408752441406" y="-8"><circle stroke="black" stroke-width="1" fill="none" cx="8" cy="8" r="7"/><path stroke="black" stroke-width="1" fill="none" d="m5 8 2 2 3.521-3.521"/></svg></g></g><g class="node-container" transform="translate(313.93282318115234,621.1111106872559)"><g class="node state Task SucceededState" aria-label="State SendGlueJobCompletionAlert" data-virtual-tab-id="20" tabindex="-1" transform="translate(-8)"><rect class="shape step-status" rx="5" ry="5" x="-104.60369873046875" y="-18.88888931274414" width="225.2073974609375" height="37.77777862548828"/><text class="label" xml:space="preserve" text-anchor="middle" alignment-baseline="central">SendGlueJobCompletionAlert</text><svg class="icon" width="16" height="16" x="99.60369873046875" y="-8"><circle stroke="black" stroke-width="1" fill="none" cx="8" cy="8" r="7"/><path stroke="black" stroke-width="1" fill="none" d="m5 8 2 2 3.521-3.521"/></svg></g></g><g class="node-container" transform="translate(563.3272171020508,621.1111106872559)"><g class="node state Task NotYetStarted" aria-label="State SendGlueJobFailureAlert" data-virtual-tab-id="21" tabindex="-1" transform="translate(-8)"><rect class="shape step-status" rx="5" ry="5" x="-88.79069519042969" y="-18.88888931274414" width="193.58139038085938" height="37.77777862548828"/><text class="label" xml:space="preserve" text-anchor="middle" alignment-baseline="central">SendGlueJobFailureAlert</text><svg class="icon" width="16" height="16" x="83.79069519042969" y="-8"/></g></g><g class="node-container" transform="translate(313.93282318115234,683.8888893127441)"><g class="node state Task SucceededState" aria-label="State WorkflowSucceeded" data-virtual-tab-id="22" tabindex="-1" transform="translate(-8)"><rect class="shape step-status" rx="5" ry="5" x="-74.84375" y="-18.88888931274414" width="165.6875" height="37.77777862548828"/><text class="label" xml:space="preserve" text-anchor="middle" alignment-baseline="central">WorkflowSucceeded</text><svg class="icon" width="16" height="16" x="69.84375" y="-8"><circle stroke="black" stroke-width="1" fill="none" cx="8" cy="8" r="7"/><path stroke="black" stroke-width="1" fill="none" d="m5 8 2 2 3.521-3.521"/></svg></g></g></g><g class="edges"><g class="edge"><path class="path" marker-end="url(#arrowhead17)" d="M446.444,451.667L445.141,453.75C443.839,455.833,441.235,460,439.932,464.167C438.63,468.333,438.63,472.5,438.63,474.583L438.63,476.667" style="fill: none;"/><defs><marker id="arrowhead17" viewBox="0 0 10 10" refX="9" refY="5" markerUnits="strokeWidth" markerWidth="8" markerHeight="6" orient="auto"><path d="M 0 0 L 10 5 L 0 10 z"/></marker></defs></g><g class="edge"><path class="path" marker-end="url(#arrowhead18)" d="M806.7,451.667L809.257,453.75C811.815,455.833,816.93,460,819.488,467.315C822.046,474.63,822.046,485.093,822.046,495.556C822.046,506.019,822.046,516.481,822.046,526.944C822.046,537.407,822.046,547.87,822.046,558.333C822.046,568.796,822.046,579.259,822.046,586.574C822.046,593.889,822.046,598.056,822.046,600.139L822.046,602.222" style="fill: none;"/><defs><marker id="arrowhead18" viewBox="0 0 10 10" refX="9" refY="5" markerUnits="strokeWidth" markerWidth="8" markerHeight="6" orient="auto"><path d="M 0 0 L 10 5 L 0 10 z"/></marker></defs></g><g class="edge"><path class="path" marker-end="url(#arrowhead19)" d="M567.989,44.848L567.989,45.753C567.989,46.658,567.989,48.468,567.989,51.456C567.989,54.444,567.989,58.611,567.989,60.694L567.989,62.778" style="fill: none;"/></g><g class="edge"><path class="path" marker-end="url(#arrowhead20)" d="M822.046,640L822.046,642.083C822.046,644.167,822.046,648.333,811.822,652.897C801.598,657.462,781.151,662.423,770.927,664.904L760.704,667.385" style="fill: none;"/><defs><marker id="arrowhead20" viewBox="0 0 10 10" refX="9" refY="5" markerUnits="strokeWidth" markerWidth="8" markerHeight="6" orient="auto"><path d="M 0 0 L 10 5 L 0 10 z"/></marker></defs></g><g class="edge"><path class="path" marker-end="url(#arrowhead21)" d="M438.63,514.444L438.63,516.528C438.63,518.611,438.63,522.778,438.63,526.944C438.63,531.111,438.63,535.278,438.63,537.361L438.63,539.444" style="fill: none;"/><defs><marker id="arrowhead21" viewBox="0 0 10 10" refX="9" refY="5" markerUnits="strokeWidth" markerWidth="8" markerHeight="6" orient="auto"><path d="M 0 0 L 10 5 L 0 10 z"/></marker></defs></g><g class="edge"><path class="path" marker-end="url(#arrowhead22)" d="M378.638,573.435L367.853,576.149C357.069,578.864,335.501,584.293,324.717,589.091C313.933,593.889,313.933,598.056,313.933,600.139L313.933,602.222" style="fill: none;"/><defs><marker id="arrowhead22" viewBox="0 0 10 10" refX="9" refY="5" markerUnits="strokeWidth" markerWidth="8" markerHeight="6" orient="auto"><path d="M 0 0 L 10 5 L 0 10 z"/></marker></defs></g><g class="edge"><path class="path" marker-end="url(#arrowhead23)" d="M498.622,573.435L509.407,576.149C520.191,578.864,541.759,584.293,552.543,589.091C563.327,593.889,563.327,598.056,563.327,600.139L563.327,602.222" style="fill: none;"/><defs><marker id="arrowhead23" viewBox="0 0 10 10" refX="9" refY="5" markerUnits="strokeWidth" markerWidth="8" markerHeight="6" orient="auto"><path d="M 0 0 L 10 5 L 0 10 z"/></marker></defs></g><g class="edge"><path class="path" marker-end="url(#arrowhead24)" d="M313.933,640L313.933,642.083C313.933,644.167,313.933,648.333,313.933,652.5C313.933,656.667,313.933,660.833,313.933,662.917L313.933,665" style="fill: none;"/><defs><marker id="arrowhead24" viewBox="0 0 10 10" refX="9" refY="5" markerUnits="strokeWidth" markerWidth="8" markerHeight="6" orient="auto"><path d="M 0 0 L 10 5 L 0 10 z"/></marker></defs></g><g class="edge"><path class="path" marker-end="url(#arrowhead25)" d="M563.327,640L563.327,642.083C563.327,644.167,563.327,648.333,573.551,652.897C583.774,657.462,604.222,662.423,614.445,664.904L624.669,667.385" style="fill: none;"/><defs><marker id="arrowhead25" viewBox="0 0 10 10" refX="9" refY="5" markerUnits="strokeWidth" markerWidth="8" markerHeight="6" orient="auto"><path d="M 0 0 L 10 5 L 0 10 z"/></marker></defs></g><g class="edge"><path class="path" marker-end="url(#arrowhead26)" d="M313.933,702.778L313.933,704.861C313.933,706.944,313.933,711.111,352.607,717.973C391.281,724.834,468.629,734.391,507.304,739.169L545.978,743.947" style="fill: none;"/><defs><marker id="arrowhead26" viewBox="0 0 10 10" refX="9" refY="5" markerUnits="strokeWidth" markerWidth="8" markerHeight="6" orient="auto"><path d="M 0 0 L 10 5 L 0 10 z"/></marker></defs></g><g class="edge"><path class="path" marker-end="url(#arrowhead27)" d="M692.686,702.778L692.686,704.861C692.686,706.944,692.686,711.111,675.488,717.524C658.29,723.936,623.894,732.594,606.695,736.924L589.497,741.253" style="fill: none;"/><defs><marker id="arrowhead27" viewBox="0 0 10 10" refX="9" refY="5" markerUnits="strokeWidth" markerWidth="8" markerHeight="6" orient="auto"><path d="M 0 0 L 10 5 L 0 10 z"/></marker></defs></g></g></g><style xmlns="http://www.w3.org/1999/xhtml">
  .link &gt; rect {
    fill: #0073BB;
  }

  .link .label {
    fill: #FFFFFF;
  }

  .node &gt; .shape {
    stroke: #555555;
    stroke-width: 0.6px;
    fill: #FFFFFF;
  }

  path {
    stroke: #555;
    background-color: #555;
    stroke-width: 1px;
  }

  .node.state.NotYetStarted &gt; .shape,
  .node.state.Container &gt; .shape {
    stroke-dasharray: 5 2;
  }

  .node.state.FailedState &gt; .shape,
  rect.legend.FailedState {
    fill: #DE322F;
  }

  .node.state.CaughtErrorState &gt; .shape,
  rect.legend.CaughtErrorState {
    fill: #FFA500;
  }

  .node.state.SucceededState &gt; .shape,
  rect.legend.SucceededState {
    fill: #2BD62E;
  }

  .node.state.InProgressState &gt; .shape,
  rect.legend.InProgressState {
    fill: #53c9ed;
  }

  .node.state.CancelledState &gt; .shape,
  rect.legend.CancelledState {
    fill: #dddddd;
  }

  .node.anchor &gt; .shape {
    fill: #FFDA75;
  }

  .node.state.hovered:not(.selected):not(.NotYetStarted) &gt; .shape,
  .node.selected &gt; .shape {
    stroke: #555555;
    stroke-width: 2px;
  }

  .node.state.Container.Failed &gt; .shape {
    fill: #EE9592;
  }

  .node.state.Container.CaughtError &gt; .shape {
    fill: #FFD27F;
  }

  .node.state.Container.Succeeded &gt; .shape {
    fill: #91EA9A;
  }

  .node.state.Container.InProgress &gt; .shape {
    fill :#A9E4F7;
  }

  .node.state.Container.Cancelled &gt; .shape {
    fill: #EEEEEE;
  }

  marker {
    fill: #555555;
  }

  .node.anchor,
  .node.state.NotYetStarted {
    cursor: default;
  }

  .node.state {
    cursor: default;
  }

  tspan .label {
    font-weight: normal;
    font-size: 12px;
    text-shadow: none;
  }
</style></svg>